<?xml version="1.0" encoding="UTF-8" standalone="no"?>
<svg
   viewBox="0 0 476.12067 122.63579"
   version="1.1"
   id="svg10"
   sodipodi:docname="logo.svg"
   width="476.12067"
   height="122.63579"
   inkscape:version="1.3 (0e150ed6c4, 2023-07-21)"
   xmlns:inkscape="http://www.inkscape.org/namespaces/inkscape"
   xmlns:sodipodi="http://sodipodi.sourceforge.net/DTD/sodipodi-0.dtd"
   xmlns:xlink="http://www.w3.org/1999/xlink"
   xmlns="http://www.w3.org/2000/svg"
   xmlns:svg="http://www.w3.org/2000/svg">
  <defs
     id="defs10" />
  <sodipodi:namedview
     id="namedview10"
     pagecolor="#ffffff"
     bordercolor="#000000"
     borderopacity="0.25"
     inkscape:showpageshadow="2"
     inkscape:pageopacity="0.0"
     inkscape:pagecheckerboard="0"
     inkscape:deskcolor="#d1d1d1"
     inkscape:zoom="0.52213542"
     inkscape:cx="117.78554"
     inkscape:cy="-137.89526"
     inkscape:window-width="1920"
     inkscape:window-height="991"
     inkscape:window-x="-9"
     inkscape:window-y="-9"
     inkscape:window-maximized="1"
     inkscape:current-layer="svg10" />
  <image
     xlink:href=""
     id="container"
     x="-142.48367"
     y="-336.71497"
     width="480"
     height="480"
     style="display:none" />
  <g
     id="g16">
    <g
       id="slogan"
       style="font-style:normal;font-weight:400;font-size:32px;line-height:1;font-family:'Nunito Sans';font-variant-ligatures:none;text-align:center;text-anchor:middle"
       transform="translate(-414.48367,-480.71496)" />
    <g
       id="path333724"
       aria-label="^N"
       transform="matrix(1.83,0,0,1.83,-136.75367,-126.33427)"
       style="font-style:normal;font-weight:normal;font-size:72px;line-height:1;font-family:'Brandmark Sans 49 Color';font-variant-ligatures:normal;text-align:center;text-anchor:middle">
      <g
         id="g12">
        <polygon
           points="125.20509,71.91542 125.20509,92.79726 108.64357,82.35634 "
           fill="#89cdc9"
           id="polygon1" />
        <polygon
           points="74.72878,101.438 91.21803,111.87892 74.72878,122.31984 "
           fill="#89cdc9"
           id="polygon2" />
        <polygon
           points="74.72878,88.47682 74.72878,71.91542 125.20509,105.75832 125.20509,122.31984 "
           fill="#dbebe9"
           id="polygon3" />
      </g>
    </g>
    <g
       id="path333726"
       aria-label="i"
       transform="matrix(1.83,0,0,1.83,-62.820456,-126.33416)"
       style="font-style:normal;font-weight:normal;font-size:72px;line-height:1;font-family:'Brandmark Sans 49 Color';font-variant-ligatures:normal;text-align:center;text-anchor:middle">
      <g
         id="g10">
        <circle
           cx="99.71315"
           cy="76.595848"
           r="7.5607901"
           fill="#89cdc9"
           id="circle3" />
        <path
           d="M 93.23268,116.12728 V 97.54964 c 0,-2.88025 -0.14404,-4.32031 -1.72827,-5.54443 l 1.80029,-0.64807 12.88916,-5.04041 v 29.81055 c 0,2.88025 0.79199,4.46436 1.87207,6.1925 H 91.36037 c 1.08007,-1.72814 1.87231,-3.31225 1.87231,-6.1925 z"
           fill="#dbebe9"
           id="path3" />
      </g>
    </g>
    <g
       id="path333728"
       aria-label="y"
       transform="matrix(1.83,0,0,1.83,-4.1125154,-126.47596)"
       style="font-style:normal;font-weight:normal;font-size:72px;line-height:1;font-family:'Brandmark Sans 49 Color';font-variant-ligatures:normal;text-align:center;text-anchor:middle">
      <g
         id="g11">
        <path
           d="m 122.50441,86.31673 c -3.81641,1.80011 -6.76855,4.96838 -8.92871,9.72083 0.21582,-4.75244 -1.0083,-7.92072 -3.96045,-9.72083 z"
           fill="#dbebe9"
           id="path4" />
        <path
           d="m 93.12599,124.62399 c 0.71973,5.04047 2.44775,7.99274 4.96826,8.0647 -1.22412,1.72815 -3.45654,2.95227 -5.90479,3.31232 -4.6084,0.72003 -8.92871,-1.72815 -9.50488,-5.47247 z"
           fill="#89cdc9"
           id="path5" />
        <path
           d="m 108.67921,107.41451 -6.26465,14.90527 -15.26513,-30.45861 c -1.29639,-2.59222 -2.08838,-3.81628 -4.6084,-5.54443 h 15.55322 z"
           fill="#dbebe9"
           id="path6" />
      </g>
    </g>
    <g
       id="path333730"
       aria-label="o"
       transform="matrix(1.83,0,0,1.83,87.738281,-127.65196)"
       style="font-style:normal;font-weight:normal;font-size:72px;line-height:1;font-family:'Brandmark Sans 49 Color';font-variant-ligatures:normal;text-align:center;text-anchor:middle">
      <g
         id="g13">
        <path
           d="m 92.76588,108.13461 c 5.25635,9.00073 12.09692,13.89722 16.20142,12.74512 -2.88037,1.3681 -6.12061,2.16016 -9.64893,2.16016 -11.37695,0 -20.44971,-8.2807 -20.44971,-18.72162 0,-7.20062 4.39233,-13.39313 10.87305,-16.48944 -3.45654,2.52025 -2.1604,11.30498 3.02417,20.30578 z m 7.92066,-23.042 c 11.37695,0 20.44971,8.2807 20.44971,18.72162 0,7.20062 -4.39233,13.39313 -10.8728,16.48944 3.4563,-2.52026 2.16016,-11.30499 -3.02441,-20.30579 -5.25635,-9.00079 -12.09692,-13.89722 -16.20142,-12.74512 2.88036,-1.36809 6.1206,-2.16015 9.64892,-2.16015 z"
           fill="#dbebe9"
           id="path7" />
      </g>
    </g>
    <g
       id="path333732"
       aria-label="r"
       transform="matrix(1.83,0,0,1.83,167.66414,-127.15696)"
       style="font-style:normal;font-weight:normal;font-size:72px;line-height:1;font-family:'Brandmark Sans 49 Color';font-variant-ligatures:normal;text-align:center;text-anchor:middle">
      <g
         id="g14">
        <path
           d="m 109.79494,85.59664 c 5.40063,0 9.93701,3.52832 9.93701,7.84869 l -12.96118,5.04041 c 0,-5.9765 -1.51221,-9.57684 -4.32031,-10.08087 1.72802,-1.80017 4.39233,-2.80823 7.34448,-2.80823 z"
           fill="#dbebe9"
           id="path8" />
        <path
           d="m 85.96095,91.35714 12.88916,-5.04041 v 29.81055 c 0,2.88025 0.79199,4.46436 1.87207,6.1925 H 84.01686 c 1.08008,-1.72815 1.87207,-3.31226 1.87207,-6.1925 V 97.54964 c 0,-2.88025 -0.14404,-4.32031 -1.72803,-5.54443 z"
           fill="#dbebe9"
           id="path9" />
      </g>
    </g>
    <g
       id="path333734"
       aria-label="o"
       transform="matrix(1.83,0,0,1.83,254.44133,-127.65196)"
       style="font-style:normal;font-weight:normal;font-size:72px;line-height:1;font-family:'Brandmark Sans 49 Color';font-variant-ligatures:normal;text-align:center;text-anchor:middle">
      <g
         id="g15">
        <path
           d="m 92.76588,108.13461 c 5.25635,9.00073 12.09692,13.89722 16.20142,12.74512 -2.88037,1.3681 -6.12061,2.16016 -9.64893,2.16016 -11.37695,0 -20.44971,-8.2807 -20.44971,-18.72162 0,-7.20062 4.39233,-13.39313 10.87305,-16.48944 -3.45654,2.52025 -2.1604,11.30498 3.02417,20.30578 z m 7.92066,-23.042 c 11.37695,0 20.44971,8.2807 20.44971,18.72162 0,7.20062 -4.39233,13.39313 -10.8728,16.48944 3.4563,-2.52026 2.16016,-11.30499 -3.02441,-20.30579 -5.25635,-9.00079 -12.09692,-13.89722 -16.20142,-12.74512 2.88036,-1.36809 6.1206,-2.16015 9.64892,-2.16015 z"
           fill="#dbebe9"
           id="path10" />
      </g>
    </g>
  </g>
</svg>
